<svg xmlns="http://www.w3.org/2000/svg" viewBox="0 0 64 64" width="64" height="64">
  <line x1="10" y1="60" x2="32" y2="34" fill="none" stroke="#1d1d1f" stroke-width="2.8" stroke-linecap="round" stroke-linejoin="round"/>
  <line x1="54" y1="60" x2="32" y2="34" fill="none" stroke="#1d1d1f" stroke-width="2.8" stroke-linecap="round" stroke-linejoin="round"/>
  <circle cx="32" cy="34" r="3.2" fill="#1d1d1f"/>
  <path d="M32,34 C28,28 22,30 18,24 C14,18 20,16 16,10" fill="none" stroke="#1d1d1f" stroke-width="2.8" stroke-linecap="round"/>
  <path d="M32,34 C36,28 42,30 46,24 C50,18 44,16 48,10" fill="none" stroke="#1d1d1f" stroke-width="2.8" stroke-linecap="round"/>
  <circle cx="16" cy="10" r="2.5" fill="#1d1d1f"/>
  <circle cx="48" cy="10" r="2.5" fill="#1d1d1f"/>
  <path d="M10,60 C16,56 24,55 32,57" fill="none" stroke="#1d1d1f" stroke-width="1.5" stroke-linecap="round"/>
  <path d="M54,60 C48,56 40,55 32,57" fill="none" stroke="#1d1d1f" stroke-width="1.5" stroke-linecap="round"/>
</svg>
